<?xml version="1.0" encoding="UTF-8"?><svg id="Layer_2" xmlns="http://www.w3.org/2000/svg" width="100" height="82.51" viewBox="0 0 100 82.51"><defs><style>.cls-1{fill:#292f36;}</style></defs><g id="Layer_1-2"><path class="cls-1" d="M70.22,78.19l-7.75-14.98c-.55-1.02-1.69-1.67-2.94-1.67h-23.84l-9.35,19.12c-.42.86-1.18,1.52-2.09,1.85h43.03c2.43,0,4.01-2.33,2.94-4.32Z"/><path class="cls-1" d="M36.46,6.42c-.3-.61-.41-1.26-.34-1.9L.34,77.71c-1.09,2.24.62,4.8,3.21,4.8h16.96c1.38,0,2.63-.76,3.21-1.95l24.5-50.11-11.75-24.03Z"/><path class="cls-1" d="M79.5,82.51h16.96c2.59,0,4.3-2.56,3.21-4.8L61.77,1.95C61.19.76,59.94,0,58.57,0h-16.96c-2.59,0-4.3,2.56-3.21,4.8l37.89,75.76c.58,1.19,1.83,1.95,3.21,1.95Z"/></g></svg>