<?xml version="1.0" encoding="UTF-8"?><svg id="Layer_2" xmlns="http://www.w3.org/2000/svg" width="100" height="86.51" viewBox="0 0 100 86.51"><defs><style>.cls-1{fill:#fff;}</style></defs><g id="Layer_1-2"><path class="cls-1" d="M70.22,81.98l-7.75-15.7c-.55-1.07-1.69-1.75-2.94-1.75h-23.84l-9.35,20.05c-.42.91-1.18,1.59-2.09,1.94h43.03c2.43,0,4.01-2.45,2.94-4.53Z"/><path class="cls-1" d="M36.46,6.73c-.3-.64-.41-1.32-.34-1.99L.34,81.48c-1.09,2.35.62,5.03,3.21,5.03h16.96c1.38,0,2.63-.8,3.21-2.04l24.5-52.54-11.75-25.2Z"/><path class="cls-1" d="M79.5,86.51h16.96c2.59,0,4.3-2.69,3.21-5.03L61.77,2.04C61.19.8,59.94,0,58.57,0h-16.96c-2.59,0-4.3,2.69-3.21,5.03l37.89,79.43c.58,1.25,1.83,2.04,3.21,2.04Z"/></g></svg>