<?xml version="1.0" encoding="UTF-8"?><svg id="Layer_2" xmlns="http://www.w3.org/2000/svg" width="100" height="82.51" xmlns:xlink="http://www.w3.org/1999/xlink" viewBox="0 0 100 82.51"><defs><style>.cls-1{fill:url(#linear-gradient-3);}.cls-2{fill:url(#linear-gradient-2);}.cls-3{fill:url(#linear-gradient);}</style><linearGradient id="linear-gradient" x1="66.83" y1="79.9" x2="11.29" y2="62.16" gradientUnits="userSpaceOnUse"><stop offset=".07" stop-color="#e51bd4"/><stop offset=".2" stop-color="#b81fae"/><stop offset=".36" stop-color="#852583"/><stop offset=".51" stop-color="#5d2962"/><stop offset=".65" stop-color="#402c49"/><stop offset=".77" stop-color="#2f2e3b"/><stop offset=".86" stop-color="#292f36"/></linearGradient><linearGradient id="linear-gradient-2" x1="1.92" y1="78.1" x2="59.44" y2="5.16" gradientUnits="userSpaceOnUse"><stop offset=".05" stop-color="#e51bd4"/><stop offset=".09" stop-color="#db1bcc"/><stop offset=".5" stop-color="#7c267c"/><stop offset=".79" stop-color="#402c49"/><stop offset=".92" stop-color="#292f36"/></linearGradient><linearGradient id="linear-gradient-3" x1="40.41" y1="2.67" x2="97.55" y2="79.7" gradientUnits="userSpaceOnUse"><stop offset="0" stop-color="#e51bd4"/><stop offset="1" stop-color="#292f36"/></linearGradient></defs><g id="Layer_1-2"><path class="cls-3" d="M62.46,63.21c-.55-1.02-1.69-1.67-2.94-1.67h-23.84l-9.35,19.12c-.42.86-1.18,1.52-2.09,1.85h43.03c2.43,0,4.01-2.33,2.94-4.32l-7.75-14.98Z"/><path class="cls-2" d="M36.46,6.42c-.3-.61-.41-1.26-.34-1.9L.34,77.71c-1.09,2.24.62,4.8,3.21,4.8h16.96c1.38,0,2.63-.76,3.21-1.95l24.5-50.11-11.75-24.03Z"/><path class="cls-1" d="M99.66,77.71L61.77,1.95c-.58-1.19-1.83-1.95-3.21-1.95h-16.96c-2.59,0-4.3,2.56-3.21,4.8l37.89,75.76c.58,1.19,1.83,1.95,3.21,1.95h16.96c2.59,0,4.3-2.56,3.21-4.8Z"/></g></svg>