<?xml version="1.0" encoding="UTF-8"?><svg id="Layer_2" xmlns="http://www.w3.org/2000/svg" width="500" height="500" viewBox="0 0 500 500"><defs><style>.cls-1{fill:#292f36;}.cls-2{fill:#fff;}</style></defs><g id="Layer_1-2"><rect class="cls-1" y="0" width="500" height="500" rx="50" ry="50"/><path class="cls-2" d="M338.74,419.97l-34.03-68.93c-2.43-4.7-7.42-7.67-12.89-7.67h-104.66l-41.03,88c-1.85,3.98-5.2,6.99-9.17,8.51h188.89c10.66,0,17.62-10.74,12.89-19.9Z"/><path class="cls-2" d="M190.54,89.68c-1.3-2.79-1.79-5.81-1.48-8.76L31.99,417.77c-4.8,10.3,2.72,22.09,14.08,22.09h74.44c6.04,0,11.52-3.5,14.08-8.97l107.53-230.61-51.58-110.61Z"/><path class="cls-2" d="M379.49,439.87h74.44c11.36,0,18.88-11.8,14.08-22.09L301.68,69.1c-2.55-5.47-8.04-8.97-14.08-8.97h-74.44c-11.36,0-18.88,11.8-14.08,22.09l166.33,348.68c2.55,5.47,8.04,8.97,14.08,8.97Z"/></g></svg>